<svg width="374" height="50" viewBox="0 0 374 50" fill="none" xmlns="http://www.w3.org/2000/svg">
<path d="M4.66162 8.15479H149.845V42.0001H4.66162V8.15479Z" fill="url(#paint0_linear_405_3032)"/>
<path d="M5.64259 2.18209H42.9194V20.1002H5.64259V2.18209Z" fill="url(#paint1_linear_405_3032)"/>
<path d="M113.549 1.18665H131.206V19.1047H113.549V1.18665Z" fill="url(#paint2_linear_405_3032)"/>
<g filter="url(#filter0_d_405_3032)">
<path d="M4 22.0034H6.82519V33.3993C6.82519 33.471 7.00176 33.7099 7.35491 34.116C7.7316 34.5222 8.1907 35.0119 8.73219 35.5853C9.27368 36.1348 9.82695 36.6843 10.392 37.2338C10.957 37.7833 11.4397 38.2372 11.8399 38.5956C12.2401 38.9539 12.4756 39.1331 12.5462 39.1331C12.5462 39.1331 12.9464 39.1331 13.7469 39.1331C14.5709 39.1331 15.5833 39.1331 16.784 39.1331C17.9847 39.1331 19.1854 39.1331 20.3861 39.1331C21.5868 39.1331 22.5874 39.1331 23.3878 39.1331C24.2119 39.1331 24.6239 39.1331 24.6239 39.1331C24.6239 39.587 24.6239 40.0648 24.6239 40.5665C24.6239 41.0444 24.6239 41.5222 24.6239 42C24.4591 42 23.8469 42 22.7875 42C21.7281 42 20.4096 42 18.8322 42C17.2784 42 15.6421 42 13.9235 42C12.2284 42 10.6274 42 9.12065 42C7.61389 42 6.37787 42 5.41259 42C4.47086 42 4 42 4 42C4 42 4 41.5222 4 40.5665C4 39.587 4 38.3447 4 36.8396C4 35.3106 4 33.6979 4 32.0017C4 30.3055 4 28.7048 4 27.1997C4 25.6706 4 24.4283 4 23.4727C4 22.4932 4 22.0034 4 22.0034ZM4 19.9966C4 19.9966 4 19.5188 4 18.5631C4 17.5836 4 16.3413 4 14.8362C4 13.3072 4 11.6945 4 9.99829C4 8.30205 4 6.70136 4 5.19624C4 3.66723 4 2.42491 4 1.46928C4 0.489761 4 0 4 0C4 0 4.47086 0 5.41259 0C6.37787 0 7.61389 0 9.12065 0C10.6274 0 12.2284 0 13.9235 0C15.6421 0 17.2784 0 18.8322 0C20.4096 0 21.7281 0 22.7875 0C23.8469 0 24.4591 0 24.6239 0C24.6239 0.453926 24.6239 0.931741 24.6239 1.43345C24.6239 1.91126 24.6239 2.38908 24.6239 2.8669C24.6239 2.8669 24.2119 2.8669 23.3878 2.8669C22.5874 2.8669 21.5868 2.8669 20.3861 2.8669C19.1854 2.8669 17.9847 2.8669 16.784 2.8669C15.5833 2.8669 14.5709 2.8669 13.7469 2.8669C12.9464 2.8669 12.5462 2.8669 12.5462 2.8669C12.4756 2.8669 12.2401 3.04608 11.8399 3.40444C11.4397 3.7628 10.957 4.21672 10.392 4.76621C9.82695 5.3157 9.27368 5.87713 8.73219 6.45051C8.1907 7 7.7316 7.47781 7.35491 7.88396C7.00176 8.2901 6.82519 8.52901 6.82519 8.60068V19.9966H4ZM4 28.5256V13.4744H6.82519C6.82519 13.4744 6.82519 13.8567 6.82519 14.6212C6.82519 15.3618 6.82519 16.2338 6.82519 17.2372C6.82519 18.2406 6.82519 19.1246 6.82519 19.8891C6.82519 20.6297 6.82519 21 6.82519 21C6.82519 21 6.82519 21.3822 6.82519 22.1468C6.82519 22.8874 6.82519 23.7594 6.82519 24.7628C6.82519 25.7662 6.82519 26.6502 6.82519 27.4147C6.82519 28.1553 6.82519 28.5256 6.82519 28.5256H4ZM26.2484 19.5665C26.2484 19.5665 26.2484 19.7577 26.2484 20.1399C26.2484 20.5222 26.2484 21.0119 26.2484 21.6092C26.2484 22.2065 26.2484 22.8396 26.2484 23.5085C26.2484 24.1775 26.2484 24.8106 26.2484 25.4078C26.2484 26.0051 26.2484 26.4949 26.2484 26.8771C26.2484 27.2594 26.2484 27.4505 26.2484 27.4505C26.2484 27.4983 26.2484 27.5341 26.2484 27.558C26.2484 27.5819 26.2366 27.5939 26.213 27.5939C26.1895 27.5939 26.1542 27.5939 26.1071 27.5939H23.7763C23.7292 27.5939 23.6939 27.5939 23.6704 27.5939C23.6468 27.5939 23.6351 27.5819 23.6351 27.558C23.6351 27.5341 23.6351 27.4983 23.6351 27.4505C23.6351 27.4505 23.6351 27.1997 23.6351 26.6979C23.6351 26.1724 23.6351 25.5034 23.6351 24.6911C23.6351 23.8549 23.6351 22.9829 23.6351 22.0751C23.6351 21.1672 23.6351 20.3072 23.6351 19.4949C23.6351 18.6587 23.6351 17.9898 23.6351 17.4881C23.6351 16.9625 23.6351 16.6997 23.6351 16.6997C23.6351 16.6997 24.0824 16.6997 24.977 16.6997C25.8717 16.6997 27.0135 16.6997 28.4026 16.6997C29.8152 16.6997 31.3101 16.6997 32.8875 16.6997C34.4649 16.6997 35.9482 16.6997 37.3372 16.6997C38.7498 16.6997 39.9034 16.6997 40.7981 16.6997C41.6927 16.6997 42.14 16.6997 42.14 16.6997L42.4932 18.1331L42.14 19.5665C42.14 19.5665 41.7516 19.5665 40.9746 19.5665C40.2213 19.5665 39.2442 19.5665 38.0435 19.5665C36.8428 19.5665 35.5597 19.5665 34.1942 19.5665C32.8522 19.5665 31.5691 19.5665 30.3449 19.5665C29.1442 19.5665 28.1554 19.5665 27.3784 19.5665C26.625 19.5665 26.2484 19.5665 26.2484 19.5665ZM44.2589 22.0034C44.2589 22.0034 44.2589 22.4932 44.2589 23.4727C44.2589 24.4283 44.2589 25.6706 44.2589 27.1997C44.2589 28.7048 44.2589 30.3055 44.2589 32.0017C44.2589 33.6979 44.2589 35.3106 44.2589 36.8396C44.2589 38.3447 44.2589 39.587 44.2589 40.5665C44.2589 41.5222 44.2589 42 44.2589 42C44.2589 42 43.7645 42 42.7757 42C41.7869 42 40.5038 42 38.9264 42C37.3725 42 35.7127 42 33.947 42C32.1812 42 30.5097 42 28.9323 42C27.3784 42 26.1071 42 25.1183 42C24.1295 42 23.6351 42 23.6351 42C23.6351 41.5222 23.6351 41.0444 23.6351 40.5665C23.6351 40.0648 23.6351 39.587 23.6351 39.1331C23.6351 39.1331 24.0588 39.1331 24.9064 39.1331C25.7775 39.1331 26.884 39.1331 28.226 39.1331C29.5915 39.1331 31.0276 39.1331 32.5344 39.1331C34.0412 39.1331 35.4655 39.1331 36.8075 39.1331C38.173 39.1331 39.2795 39.1331 40.1271 39.1331C40.9982 39.1331 41.4337 39.1331 41.4337 39.1331C41.4337 39.1331 41.4337 38.727 41.4337 37.9147C41.4337 37.0785 41.4337 36.0154 41.4337 34.7253C41.4337 33.4113 41.4337 32.0256 41.4337 30.5683C41.4337 29.1109 41.4337 27.7372 41.4337 26.4471C41.4337 25.1331 41.4337 24.07 41.4337 23.2577C41.4337 22.4215 41.4337 22.0034 41.4337 22.0034H44.2589ZM44.2589 19.9966H41.4337C41.4337 19.9966 41.4337 19.5904 41.4337 18.7782C41.4337 17.942 41.4337 16.8788 41.4337 15.5887C41.4337 14.2747 41.4337 12.8891 41.4337 11.4317C41.4337 9.9744 41.4337 8.60068 41.4337 7.31058C41.4337 5.99659 41.4337 4.93345 41.4337 4.12116C41.4337 3.28498 41.4337 2.8669 41.4337 2.8669C41.4337 2.8669 40.9982 2.8669 40.1271 2.8669C39.2795 2.8669 38.173 2.8669 36.8075 2.8669C35.4655 2.8669 34.0412 2.8669 32.5344 2.8669C31.0276 2.8669 29.5915 2.8669 28.226 2.8669C26.884 2.8669 25.7775 2.8669 24.9064 2.8669C24.0588 2.8669 23.6351 2.8669 23.6351 2.8669C23.6351 2.38908 23.6351 1.91126 23.6351 1.43345C23.6351 0.931741 23.6351 0.453926 23.6351 0C23.6351 0 24.1295 0 25.1183 0C26.1071 0 27.3784 0 28.9323 0C30.5097 0 32.1812 0 33.947 0C35.7127 0 37.3725 0 38.9264 0C40.5038 0 41.7869 0 42.7757 0C43.7645 0 44.2589 0 44.2589 0C44.2589 0 44.2589 0.489761 44.2589 1.46928C44.2589 2.42491 44.2589 3.66723 44.2589 5.19624C44.2589 6.70136 44.2589 8.30205 44.2589 9.99829C44.2589 11.6945 44.2589 13.3072 44.2589 14.8362C44.2589 16.3413 44.2589 17.5836 44.2589 18.5631C44.2589 19.5188 44.2589 19.9966 44.2589 19.9966ZM44.2589 35.0478H41.4337C41.4337 35.0478 41.4337 34.1041 41.4337 32.2167C41.4337 30.3055 41.4337 27.1877 41.4337 22.8635C41.4337 22.8635 41.4337 22.8037 41.4337 22.6843C41.4337 22.5648 41.4337 22.5051 41.4337 22.5051C41.4337 22.5051 41.4337 22.4454 41.4337 22.3259C41.4337 22.2065 41.4337 22.1468 41.4337 22.1468C41.4337 17.4403 41.4337 14 41.4337 11.8259C41.4337 9.62799 41.4337 8.52901 41.4337 8.52901H44.2589V35.0478Z" fill="black"/>
<path d="M41.453 27.3072C41.453 26.2082 41.453 24.9659 41.453 23.5802C41.453 22.1945 41.453 20.7491 41.453 19.244C41.453 17.7389 41.453 16.2816 41.453 14.872C41.453 13.4625 41.453 12.1843 41.453 11.0375C41.453 9.89078 41.453 8.98293 41.453 8.31399C41.453 7.64505 41.453 7.31058 41.453 7.31058C41.453 7.31058 41.9239 7.31058 42.8656 7.31058C43.7838 7.31058 44.961 7.31058 46.3971 7.31058C47.8568 7.31058 49.4107 7.31058 51.0587 7.31058C52.7067 7.31058 54.2488 7.31058 55.6849 7.31058C57.1446 7.31058 58.3335 7.31058 59.2517 7.31058C60.1935 7.31058 60.6643 7.31058 60.6643 7.31058C60.6643 7.7645 60.6643 8.24232 60.6643 8.74403C60.6643 9.22184 60.6643 9.69966 60.6643 10.1775C60.5466 10.1775 60.1581 10.1775 59.4989 10.1775C58.8397 10.1775 58.0275 10.1775 57.0622 10.1775C56.1205 10.1775 55.1552 10.1775 54.1664 10.1775C53.2011 10.1775 52.33 10.1775 51.5531 10.1775C50.7997 10.1775 50.2818 10.1775 49.9992 10.1775C49.9286 10.1775 49.6932 10.3567 49.2929 10.715C48.8927 11.0734 48.4101 11.5273 47.845 12.0768C47.28 12.6263 46.7267 13.1877 46.1852 13.7611C45.6437 14.3106 45.1847 14.7884 44.808 15.1945C44.4548 15.6007 44.2782 15.8396 44.2782 15.9113V27.3072H41.453ZM41.453 16.413H44.2782C44.2782 17.727 44.2782 18.7782 44.2782 19.5665C44.2782 20.3549 44.2782 21.1194 44.2782 21.8601C44.2782 22.5768 44.2782 23.5085 44.2782 24.6553C44.2782 25.8498 44.2782 26.7577 44.2782 27.3788C44.2782 28 44.2782 28.5256 44.2782 28.9556C44.2782 29.3618 44.2782 29.8515 44.2782 30.4249C44.2782 30.9744 44.2782 31.7986 44.2782 32.8976H41.453V16.413ZM41.453 22.0034H44.2782V33.3993C44.2782 33.471 44.4548 33.7099 44.808 34.116C45.1847 34.5222 45.6437 35.0119 46.1852 35.5853C46.7267 36.1348 47.28 36.6843 47.845 37.2338C48.4101 37.7833 48.8927 38.2372 49.2929 38.5956C49.6932 38.9539 49.9286 39.1331 49.9992 39.1331C50.2818 39.1331 50.7997 39.1331 51.5531 39.1331C52.33 39.1331 53.2011 39.1331 54.1664 39.1331C55.1552 39.1331 56.1205 39.1331 57.0622 39.1331C58.0275 39.1331 58.8397 39.1331 59.4989 39.1331C60.1581 39.1331 60.5466 39.1331 60.6643 39.1331C60.6643 39.587 60.6643 40.0648 60.6643 40.5665C60.6643 41.0444 60.6643 41.5222 60.6643 42C60.6643 42 60.1935 42 59.2517 42C58.3335 42 57.1446 42 55.6849 42C54.2488 42 52.7067 42 51.0587 42C49.4107 42 47.8568 42 46.3971 42C44.961 42 43.7838 42 42.8656 42C41.9239 42 41.453 42 41.453 42C41.453 42 41.453 41.6655 41.453 40.9966C41.453 40.3276 41.453 39.4198 41.453 38.273C41.453 37.1263 41.453 35.8481 41.453 34.4386C41.453 33.029 41.453 31.5836 41.453 30.1024C41.453 28.5973 41.453 27.1399 41.453 25.7304C41.453 24.3208 41.453 23.0785 41.453 22.0034ZM79.028 27.3072H76.2029V15.9113C76.2029 15.8396 76.0145 15.6007 75.6378 15.1945C75.2847 14.7884 74.8374 14.3106 74.2959 13.7611C73.7544 13.1877 73.2011 12.6263 72.6361 12.0768C72.071 11.5273 71.5884 11.0734 71.1882 10.715C70.7879 10.3567 70.5525 10.1775 70.4819 10.1775C70.1993 10.1775 69.6696 10.1775 68.8927 10.1775C68.1393 10.1775 67.2682 10.1775 66.2794 10.1775C65.3141 10.1775 64.3488 10.1775 63.3836 10.1775C62.4418 10.1775 61.6414 10.1775 60.9822 10.1775C60.3229 10.1775 59.9345 10.1775 59.8168 10.1775C59.8168 9.69966 59.8168 9.22184 59.8168 8.74403C59.8168 8.24232 59.8168 7.7645 59.8168 7.31058C59.8168 7.31058 60.2759 7.31058 61.194 7.31058C62.1358 7.31058 63.3247 7.31058 64.7608 7.31058C66.2205 7.31058 67.7744 7.31058 69.4224 7.31058C71.0704 7.31058 72.6125 7.31058 74.0487 7.31058C75.5083 7.31058 76.6973 7.31058 77.6154 7.31058C78.5572 7.31058 79.028 7.31058 79.028 7.31058C79.028 7.31058 79.028 7.64505 79.028 8.31399C79.028 8.98293 79.028 9.89078 79.028 11.0375C79.028 12.1843 79.028 13.4625 79.028 14.872C79.028 16.2816 79.028 17.7389 79.028 19.244C79.028 20.7491 79.028 22.1945 79.028 23.5802C79.028 24.9659 79.028 26.2082 79.028 27.3072ZM79.028 24.1536C79.028 24.1536 79.028 24.5836 79.028 25.4437C79.028 26.3038 79.028 27.4147 79.028 28.7764C79.028 30.1143 79.028 31.5478 79.028 33.0768C79.028 34.6058 79.028 36.0512 79.028 37.413C79.028 38.7509 79.028 39.8498 79.028 40.7099C79.028 41.57 79.028 42 79.028 42C79.028 42 78.5572 42 77.6154 42C76.6973 42 75.5083 42 74.0487 42C72.6125 42 71.0704 42 69.4224 42C67.7744 42 66.2205 42 64.7608 42C63.3247 42 62.1358 42 61.194 42C60.2759 42 59.8168 42 59.8168 42C59.8168 41.5222 59.8168 41.0444 59.8168 40.5665C59.8168 40.0648 59.8168 39.587 59.8168 39.1331C59.8168 39.1331 60.37 39.1331 61.4766 39.1331C62.5831 39.1331 63.9486 39.1331 65.5731 39.1331C67.1976 39.1331 68.8221 39.1331 70.4465 39.1331C72.071 39.1331 73.4365 39.1331 74.5431 39.1331C75.6496 39.1331 76.2029 39.1331 76.2029 39.1331C76.2029 39.1331 76.2029 38.6314 76.2029 37.628C76.2029 36.6246 76.2029 35.3822 76.2029 33.901C76.2029 32.3959 76.2029 30.9027 76.2029 29.4215C76.2029 27.9164 76.2029 26.6621 76.2029 25.6587C76.2029 24.6553 76.2029 24.1536 76.2029 24.1536H79.028ZM64.7608 18.9932C64.9021 18.9932 64.9845 19.0051 65.0081 19.029C65.0316 19.0529 65.0434 19.1365 65.0434 19.2799C65.0434 19.5427 65.0434 19.8055 65.0434 20.0683C65.0434 20.3072 65.0434 20.558 65.0434 20.8208C65.0434 21.0597 65.0434 21.3106 65.0434 21.5734C65.0434 21.7167 65.0316 21.8003 65.0081 21.8242C64.9845 21.8481 64.9021 21.8601 64.7608 21.8601C64.7608 21.8601 64.3135 21.8601 63.4189 21.8601C62.5478 21.8601 61.5354 21.8601 60.3818 21.8601C59.2282 21.8601 58.2041 21.8601 57.3094 21.8601C56.4383 21.8601 56.0028 21.8601 56.0028 21.8601C55.8615 21.8601 55.7791 21.8481 55.7556 21.8242C55.732 21.8003 55.7202 21.7167 55.7202 21.5734C55.7202 21.3106 55.7202 21.0597 55.7202 20.8208C55.7202 20.558 55.7202 20.3072 55.7202 20.0683C55.7202 19.8055 55.7202 19.5427 55.7202 19.2799C55.7202 19.1365 55.732 19.0529 55.7556 19.029C55.7791 19.0051 55.8615 18.9932 56.0028 18.9932C56.0028 18.9932 56.4383 18.9932 57.3094 18.9932C58.2041 18.9932 59.2282 18.9932 60.3818 18.9932C61.5354 18.9932 62.5478 18.9932 63.4189 18.9932C64.3135 18.9932 64.7608 18.9932 64.7608 18.9932ZM77.5448 30.3174H76.2029C76.2029 30.3174 76.2029 30.2338 76.2029 30.0665C76.2029 29.8993 76.2029 29.7321 76.2029 29.5648C76.2029 29.3976 76.2029 29.314 76.2029 29.314C76.2029 29.314 75.7202 29.3857 74.755 29.529C73.8132 29.6724 72.6361 29.8515 71.2235 30.0665C69.8344 30.2577 68.4336 30.4607 67.021 30.6758C65.632 30.8669 64.4548 31.0341 63.4895 31.1775C62.5478 31.3208 62.0769 31.3925 62.0769 31.3925C62.0769 31.3925 62.0652 31.3447 62.0416 31.2491C62.0416 31.1536 62.0181 31.0102 61.971 30.8191C61.9474 30.6041 61.9121 30.3413 61.865 30.0307C61.8179 29.7201 61.7709 29.4573 61.7238 29.2423C61.7002 29.0273 61.6767 28.872 61.6531 28.7764C61.6531 28.657 61.6531 28.5973 61.6531 28.5973C61.6531 28.5973 62.1358 28.5256 63.1011 28.3822C64.0899 28.2389 65.3023 28.0597 66.7385 27.8447C68.1982 27.6297 69.6461 27.4147 71.0822 27.1997C72.5419 26.9846 73.7544 26.8055 74.7196 26.6621C75.7085 26.5188 76.2029 26.4471 76.2029 26.4471C76.2029 26.4471 76.2029 26.3396 76.2029 26.1246C76.2029 25.8857 76.2029 25.6587 76.2029 25.4437C76.2029 25.2048 76.2029 25.0853 76.2029 25.0853H77.5448V30.3174Z" fill="black"/>
<path d="M76.2161 27.3072C76.2161 26.2082 76.2161 24.9659 76.2161 23.5802C76.2161 22.1945 76.2161 20.7491 76.2161 19.244C76.2161 17.7389 76.2161 16.2816 76.2161 14.872C76.2161 13.4625 76.2161 12.1843 76.2161 11.0375C76.2161 9.89078 76.2161 8.98293 76.2161 8.31399C76.2161 7.64505 76.2161 7.31058 76.2161 7.31058C76.2161 7.31058 76.687 7.31058 77.6287 7.31058C78.5469 7.31058 79.724 7.31058 81.1602 7.31058C82.6199 7.31058 84.1737 7.31058 85.8217 7.31058C87.4698 7.31058 89.0118 7.31058 90.448 7.31058C91.9077 7.31058 93.0966 7.31058 94.0148 7.31058C94.9565 7.31058 95.4274 7.31058 95.4274 7.31058C95.4274 7.7645 95.4274 8.24232 95.4274 8.74403C95.4274 9.22184 95.4274 9.69966 95.4274 10.1775C95.3097 10.1775 94.9212 10.1775 94.262 10.1775C93.6028 10.1775 92.7905 10.1775 91.8253 10.1775C90.8835 10.1775 89.9183 10.1775 88.9294 10.1775C87.9642 10.1775 87.0931 10.1775 86.3161 10.1775C85.5628 10.1775 85.0448 10.1775 84.7623 10.1775C84.6917 10.1775 84.4562 10.3567 84.056 10.715C83.6558 11.0734 83.1731 11.5273 82.6081 12.0768C82.0431 12.6263 81.4898 13.1877 80.9483 13.7611C80.4068 14.3106 79.9477 14.7884 79.571 15.1945C79.2179 15.6007 79.0413 15.8396 79.0413 15.9113V27.3072H76.2161ZM76.2161 16.413H79.0413C79.0413 17.727 79.0413 18.7782 79.0413 19.5665C79.0413 20.3549 79.0413 21.1194 79.0413 21.8601C79.0413 22.5768 79.0413 23.5085 79.0413 24.6553C79.0413 25.8498 79.0413 26.7577 79.0413 27.3788C79.0413 28 79.0413 28.5256 79.0413 28.9556C79.0413 29.3618 79.0413 29.8515 79.0413 30.4249C79.0413 30.9744 79.0413 31.7986 79.0413 32.8976H76.2161V16.413ZM76.2161 22.0034H79.0413V33.3993C79.0413 33.471 79.2179 33.7099 79.571 34.116C79.9477 34.5222 80.4068 35.0119 80.9483 35.5853C81.4898 36.1348 82.0431 36.6843 82.6081 37.2338C83.1731 37.7833 83.6558 38.2372 84.056 38.5956C84.4562 38.9539 84.6917 39.1331 84.7623 39.1331C85.0448 39.1331 85.5628 39.1331 86.3161 39.1331C87.0931 39.1331 87.9642 39.1331 88.9294 39.1331C89.9183 39.1331 90.8835 39.1331 91.8253 39.1331C92.7905 39.1331 93.6028 39.1331 94.262 39.1331C94.9212 39.1331 95.3097 39.1331 95.4274 39.1331C95.4274 39.587 95.4274 40.0648 95.4274 40.5665C95.4274 41.0444 95.4274 41.5222 95.4274 42C95.4274 42 94.9565 42 94.0148 42C93.0966 42 91.9077 42 90.448 42C89.0118 42 87.4698 42 85.8217 42C84.1737 42 82.6199 42 81.1602 42C79.724 42 78.5469 42 77.6287 42C76.687 42 76.2161 42 76.2161 42C76.2161 42 76.2161 41.6655 76.2161 40.9966C76.2161 40.3276 76.2161 39.4198 76.2161 38.273C76.2161 37.1263 76.2161 35.8481 76.2161 34.4386C76.2161 33.029 76.2161 31.5836 76.2161 30.1024C76.2161 28.5973 76.2161 27.1399 76.2161 25.7304C76.2161 24.3208 76.2161 23.0785 76.2161 22.0034ZM113.791 27.3072H110.966V15.9113C110.966 15.8396 110.778 15.6007 110.401 15.1945C110.048 14.7884 109.6 14.3106 109.059 13.7611C108.517 13.1877 107.964 12.6263 107.399 12.0768C106.834 11.5273 106.351 11.0734 105.951 10.715C105.551 10.3567 105.316 10.1775 105.245 10.1775C104.962 10.1775 104.433 10.1775 103.656 10.1775C102.902 10.1775 102.031 10.1775 101.042 10.1775C100.077 10.1775 99.1119 10.1775 98.1466 10.1775C97.2049 10.1775 96.4044 10.1775 95.7452 10.1775C95.086 10.1775 94.6975 10.1775 94.5798 10.1775C94.5798 9.69966 94.5798 9.22184 94.5798 8.74403C94.5798 8.24232 94.5798 7.7645 94.5798 7.31058C94.5798 7.31058 95.0389 7.31058 95.9571 7.31058C96.8988 7.31058 98.0878 7.31058 99.5239 7.31058C100.984 7.31058 102.537 7.31058 104.185 7.31058C105.833 7.31058 107.376 7.31058 108.812 7.31058C110.271 7.31058 111.46 7.31058 112.379 7.31058C113.32 7.31058 113.791 7.31058 113.791 7.31058C113.791 7.31058 113.791 7.64505 113.791 8.31399C113.791 8.98293 113.791 9.89078 113.791 11.0375C113.791 12.1843 113.791 13.4625 113.791 14.872C113.791 16.2816 113.791 17.7389 113.791 19.244C113.791 20.7491 113.791 22.1945 113.791 23.5802C113.791 24.9659 113.791 26.2082 113.791 27.3072ZM113.791 24.1536C113.791 24.1536 113.791 24.5836 113.791 25.4437C113.791 26.3038 113.791 27.4147 113.791 28.7764C113.791 30.1143 113.791 31.5478 113.791 33.0768C113.791 34.6058 113.791 36.0512 113.791 37.413C113.791 38.7509 113.791 39.8498 113.791 40.7099C113.791 41.57 113.791 42 113.791 42C113.791 42 113.32 42 112.379 42C111.46 42 110.271 42 108.812 42C107.376 42 105.833 42 104.185 42C102.537 42 100.984 42 99.5239 42C98.0878 42 96.8988 42 95.9571 42C95.0389 42 94.5798 42 94.5798 42C94.5798 41.5222 94.5798 41.0444 94.5798 40.5665C94.5798 40.0648 94.5798 39.587 94.5798 39.1331C94.5798 39.1331 95.1331 39.1331 96.2396 39.1331C97.3462 39.1331 98.7117 39.1331 100.336 39.1331C101.961 39.1331 103.585 39.1331 105.21 39.1331C106.834 39.1331 108.2 39.1331 109.306 39.1331C110.413 39.1331 110.966 39.1331 110.966 39.1331C110.966 39.1331 110.966 38.6314 110.966 37.628C110.966 36.6246 110.966 35.3822 110.966 33.901C110.966 32.3959 110.966 30.9027 110.966 29.4215C110.966 27.9164 110.966 26.6621 110.966 25.6587C110.966 24.6553 110.966 24.1536 110.966 24.1536H113.791ZM99.5239 18.9932C99.6652 18.9932 99.7476 19.0051 99.7711 19.029C99.7946 19.0529 99.8064 19.1365 99.8064 19.2799C99.8064 19.5427 99.8064 19.8055 99.8064 20.0683C99.8064 20.3072 99.8064 20.558 99.8064 20.8208C99.8064 21.0597 99.8064 21.3106 99.8064 21.5734C99.8064 21.7167 99.7946 21.8003 99.7711 21.8242C99.7476 21.8481 99.6652 21.8601 99.5239 21.8601C99.5239 21.8601 99.0766 21.8601 98.1819 21.8601C97.3108 21.8601 96.2985 21.8601 95.1449 21.8601C93.9912 21.8601 92.9671 21.8601 92.0725 21.8601C91.2014 21.8601 90.7658 21.8601 90.7658 21.8601C90.6246 21.8601 90.5422 21.8481 90.5186 21.8242C90.4951 21.8003 90.4833 21.7167 90.4833 21.5734C90.4833 21.3106 90.4833 21.0597 90.4833 20.8208C90.4833 20.558 90.4833 20.3072 90.4833 20.0683C90.4833 19.8055 90.4833 19.5427 90.4833 19.2799C90.4833 19.1365 90.4951 19.0529 90.5186 19.029C90.5422 19.0051 90.6246 18.9932 90.7658 18.9932C90.7658 18.9932 91.2014 18.9932 92.0725 18.9932C92.9671 18.9932 93.9912 18.9932 95.1449 18.9932C96.2985 18.9932 97.3108 18.9932 98.1819 18.9932C99.0766 18.9932 99.5239 18.9932 99.5239 18.9932ZM112.308 30.3174H110.966C110.966 30.3174 110.966 30.2338 110.966 30.0665C110.966 29.8993 110.966 29.7321 110.966 29.5648C110.966 29.3976 110.966 29.314 110.966 29.314C110.966 29.314 110.483 29.3857 109.518 29.529C108.576 29.6724 107.399 29.8515 105.987 30.0665C104.597 30.2577 103.197 30.4607 101.784 30.6758C100.395 30.8669 99.2178 31.0341 98.2526 31.1775C97.3108 31.3208 96.84 31.3925 96.84 31.3925C96.84 31.3925 96.8282 31.3447 96.8047 31.2491C96.8047 31.1536 96.7811 31.0102 96.734 30.8191C96.7105 30.6041 96.6752 30.3413 96.6281 30.0307C96.581 29.7201 96.5339 29.4573 96.4868 29.2423C96.4633 29.0273 96.4397 28.872 96.4162 28.7764C96.4162 28.657 96.4162 28.5973 96.4162 28.5973C96.4162 28.5973 96.8988 28.5256 97.8641 28.3822C98.8529 28.2389 100.065 28.0597 101.502 27.8447C102.961 27.6297 104.409 27.4147 105.845 27.1997C107.305 26.9846 108.517 26.8055 109.483 26.6621C110.472 26.5188 110.966 26.4471 110.966 26.4471C110.966 26.4471 110.966 26.3396 110.966 26.1246C110.966 25.8857 110.966 25.6587 110.966 25.4437C110.966 25.2048 110.966 25.0853 110.966 25.0853H112.308V30.3174Z" fill="black"/>
<path d="M129.696 26.7338C129.696 26.7338 129.767 26.7338 129.908 26.7338C130.049 26.7338 130.226 26.7338 130.438 26.7338C130.65 26.7338 130.873 26.7338 131.109 26.7338C131.368 26.7338 131.603 26.7338 131.815 26.7338C132.05 26.7338 132.239 26.7338 132.38 26.7338C132.521 26.7338 132.592 26.7338 132.592 26.7338C132.592 27.116 132.592 27.785 132.592 28.7406C132.592 29.6723 132.592 30.7235 132.592 31.8942C132.592 33.0648 132.592 34.2116 132.592 35.3345C132.592 36.4334 132.592 37.3413 132.592 38.058C132.592 38.7747 132.592 39.1331 132.592 39.1331C132.592 39.1331 132.969 39.1331 133.722 39.1331C134.499 39.1331 135.488 39.1331 136.688 39.1331C137.889 39.1331 139.16 39.1331 140.502 39.1331C141.844 39.1331 143.116 39.1331 144.316 39.1331C145.517 39.1331 146.494 39.1331 147.247 39.1331C148.024 39.1331 148.413 39.1331 148.413 39.1331C148.413 39.1331 148.413 38.7628 148.413 38.0222C148.413 37.2577 148.413 36.4454 148.413 35.5853C148.413 34.7014 148.413 34.0921 148.413 33.7577C148.413 33.4949 148.413 33.244 148.413 33.0051C148.413 32.7423 148.413 32.4317 148.413 32.0734C148.413 31.6911 148.413 31.2133 148.413 30.6399C148.413 30.0665 148.413 29.3379 148.413 28.4539C148.413 28.4539 148.413 28.2031 148.413 27.7014C148.413 27.1997 148.413 26.6143 148.413 25.9454C148.413 25.2764 148.413 24.6911 148.413 24.1894C148.413 23.6877 148.413 23.4369 148.413 23.4369H151.238C151.238 24.6075 151.238 25.9096 151.238 27.343C151.238 28.7526 151.238 30.2577 151.238 31.8584C151.238 33.4352 151.238 35.0836 151.238 36.8037C151.238 38.5 151.238 40.2321 151.238 42C151.238 42 150.732 42 149.72 42C148.707 42 147.401 42 145.8 42C144.199 42 142.492 42 140.679 42C138.866 42 137.136 42 135.488 42C133.863 42 132.509 42 131.426 42C130.367 42 129.79 42 129.696 42C129.696 42 129.696 41.8567 129.696 41.57C129.696 41.2833 129.696 40.9488 129.696 40.5665C129.696 40.1843 129.696 39.8498 129.696 39.5631C129.696 39.2764 129.696 39.1331 129.696 39.1331C129.696 38.1775 129.696 37.2338 129.696 36.302C129.696 35.3464 129.696 34.4266 129.696 33.5427C129.696 32.6348 129.696 31.7747 129.696 30.9625C129.696 30.1502 129.696 29.3857 129.696 28.6689C129.696 27.9522 129.696 27.3072 129.696 26.7338ZM110.979 22.0034H113.804C113.804 22.0034 113.804 22.4215 113.804 23.2577C113.804 24.07 113.804 25.1331 113.804 26.4471C113.804 27.7372 113.804 29.1109 113.804 30.5683C113.804 32.0256 113.804 33.4113 113.804 34.7253C113.804 36.0154 113.804 37.0785 113.804 37.9147C113.804 38.727 113.804 39.1331 113.804 39.1331C113.804 39.1331 114.228 39.1331 115.076 39.1331C115.947 39.1331 117.053 39.1331 118.395 39.1331C119.761 39.1331 121.197 39.1331 122.704 39.1331C124.21 39.1331 125.635 39.1331 126.977 39.1331C128.342 39.1331 129.449 39.1331 130.296 39.1331C131.167 39.1331 131.603 39.1331 131.603 39.1331C131.603 39.587 131.603 40.0648 131.603 40.5665C131.603 41.0444 131.603 41.5222 131.603 42C131.603 42 131.109 42 130.12 42C129.131 42 127.848 42 126.27 42C124.717 42 123.057 42 121.291 42C119.525 42 117.854 42 116.276 42C114.723 42 113.451 42 112.462 42C111.474 42 110.979 42 110.979 42C110.979 42 110.979 41.5222 110.979 40.5665C110.979 39.587 110.979 38.3447 110.979 36.8396C110.979 35.3106 110.979 33.6979 110.979 32.0017C110.979 30.3055 110.979 28.7048 110.979 27.1997C110.979 25.6706 110.979 24.4283 110.979 23.4727C110.979 22.4932 110.979 22.0034 110.979 22.0034ZM110.979 21.3584V0C110.979 0 111.344 0 112.074 0C112.804 0 113.71 0 114.793 0C115.9 0 117.006 0 118.113 0C119.219 0 120.161 0 120.938 0C121.715 0 122.139 0 122.209 0C122.28 0 122.668 0 123.375 0C124.081 0 124.94 0 125.953 0C126.989 0 128.001 0 128.99 0C130.002 0 130.838 0 131.497 0C132.18 0 132.521 0 132.521 0V7.31058C133.51 7.31058 134.499 7.31058 135.488 7.31058C136.476 7.31058 137.465 7.31058 138.454 7.31058C139.443 7.31058 140.432 7.31058 141.421 7.31058C141.421 7.31058 141.75 7.31058 142.409 7.31058C143.069 7.31058 143.881 7.31058 144.846 7.31058C145.835 7.31058 146.812 7.31058 147.777 7.31058C148.766 7.31058 149.59 7.31058 150.249 7.31058C150.908 7.31058 151.238 7.31058 151.238 7.31058V21.43H148.413V10.1775C148.413 10.1775 148.024 10.1775 147.247 10.1775C146.494 10.1775 145.517 10.1775 144.316 10.1775C143.116 10.1775 141.833 10.1775 140.467 10.1775C139.125 10.1775 137.842 10.1775 136.618 10.1775C135.417 10.1775 134.428 10.1775 133.651 10.1775C132.898 10.1775 132.521 10.1775 132.521 10.1775C132.521 10.1775 132.521 10.4881 132.521 11.1092C132.521 11.7065 132.521 12.459 132.521 13.3669C132.521 14.2747 132.521 15.1826 132.521 16.0904C132.521 16.9983 132.521 17.7628 132.521 18.384C132.521 18.9812 132.521 19.2799 132.521 19.2799C132.521 19.2799 132.286 19.2799 131.815 19.2799C131.344 19.2799 131.109 19.2799 131.109 19.2799C131.109 19.2799 130.873 19.2799 130.402 19.2799C129.931 19.2799 129.696 19.2799 129.696 19.2799C129.696 19.2799 129.696 18.7304 129.696 17.6314C129.696 16.5085 129.696 15.1348 129.696 13.5102C129.696 11.8857 129.696 10.2611 129.696 8.63652C129.696 7.01194 129.696 5.65017 129.696 4.55119C129.696 3.42833 129.696 2.8669 129.696 2.8669C129.696 2.8669 129.319 2.8669 128.566 2.8669C127.813 2.8669 126.941 2.8669 125.953 2.8669C124.964 2.8669 124.093 2.8669 123.339 2.8669C122.586 2.8669 122.209 2.8669 122.209 2.8669C122.209 2.8669 121.785 2.8669 120.938 2.8669C120.09 2.8669 119.113 2.8669 118.007 2.8669C116.9 2.8669 115.923 2.8669 115.076 2.8669C114.228 2.8669 113.804 2.8669 113.804 2.8669V21.3584H110.979ZM143.469 23.9386C143.469 23.9386 143.716 23.7355 144.21 23.3293C144.705 22.9232 145.282 22.4454 145.941 21.8959C146.6 21.3464 147.177 20.8686 147.671 20.4625C148.166 20.0563 148.413 19.8532 148.413 19.8532V16.2696H151.238C151.238 16.2696 151.238 16.7833 151.238 17.8106C151.238 18.8379 151.238 20.116 151.238 21.645C151.238 23.1741 151.238 24.7031 151.238 26.2321C151.238 27.7611 151.238 29.0392 151.238 30.0665C151.238 31.0939 151.238 31.6075 151.238 31.6075H148.413V28.0239C148.413 28.0239 148.166 27.8208 147.671 27.4147C147.177 27.0085 146.6 26.5307 145.941 25.9812C145.282 25.4317 144.705 24.9539 144.21 24.5478C143.716 24.1416 143.469 23.9386 143.469 23.9386ZM110.979 16.3413H113.804C113.804 17.6553 113.804 18.7065 113.804 19.4949C113.804 20.2833 113.804 21.0478 113.804 21.7884C113.804 22.5051 113.804 23.4369 113.804 24.5836C113.804 25.7782 113.804 26.686 113.804 27.3072C113.804 27.9283 113.804 28.4539 113.804 28.884C113.804 29.2901 113.804 29.7799 113.804 30.3532C113.804 30.9027 113.804 31.727 113.804 32.8259H110.979V16.3413Z" fill="black"/>
</g>
<path d="M154.75 8.1547H368.601V42H154.75V8.1547Z" fill="url(#paint3_linear_405_3032)"/>
<path d="M155.73 2.18201H174.369V16.1183H155.73V2.18201Z" fill="url(#paint4_linear_405_3032)"/>
<g filter="url(#filter1_d_405_3032)">
<path d="M153.092 28.5256V13.4744H155.917C155.917 13.4744 155.917 13.8567 155.917 14.6212C155.917 15.3618 155.917 16.2338 155.917 17.2372C155.917 18.2406 155.917 19.1246 155.917 19.8891C155.917 20.6297 155.917 21 155.917 21C155.917 21 155.917 21.3822 155.917 22.1468C155.917 22.8874 155.917 23.7594 155.917 24.7628C155.917 25.7662 155.917 26.6502 155.917 27.4147C155.917 28.1553 155.917 28.5256 155.917 28.5256H153.092ZM153.092 24.1536H155.917C155.917 24.1536 155.917 24.6553 155.917 25.6587C155.917 26.6621 155.917 27.9164 155.917 29.4215C155.917 30.9027 155.917 32.3959 155.917 33.901C155.917 35.3822 155.917 36.6246 155.917 37.628C155.917 38.6314 155.917 39.1331 155.917 39.1331C155.917 39.1331 156.47 39.1331 157.577 39.1331C158.683 39.1331 160.049 39.1331 161.673 39.1331C163.298 39.1331 164.922 39.1331 166.547 39.1331C168.171 39.1331 169.537 39.1331 170.643 39.1331C171.75 39.1331 172.303 39.1331 172.303 39.1331C172.303 39.587 172.303 40.0648 172.303 40.5665C172.303 41.0444 172.303 41.5222 172.303 42C172.303 42 171.832 42 170.89 42C169.972 42 168.783 42 167.324 42C165.888 42 164.345 42 162.697 42C161.049 42 159.496 42 158.036 42C156.6 42 155.423 42 154.504 42C153.563 42 153.092 42 153.092 42C153.092 42 153.092 41.57 153.092 40.7099C153.092 39.8498 153.092 38.7509 153.092 37.413C153.092 36.0512 153.092 34.6058 153.092 33.0768C153.092 31.5478 153.092 30.1143 153.092 28.7764C153.092 27.4147 153.092 26.3038 153.092 25.4437C153.092 24.5836 153.092 24.1536 153.092 24.1536ZM190.667 24.1536C190.667 24.1536 190.667 24.5836 190.667 25.4437C190.667 26.3038 190.667 27.4147 190.667 28.7764C190.667 30.1143 190.667 31.5478 190.667 33.0768C190.667 34.6058 190.667 36.0512 190.667 37.413C190.667 38.7509 190.667 39.8498 190.667 40.7099C190.667 41.57 190.667 42 190.667 42C190.667 42 190.196 42 189.254 42C188.336 42 187.147 42 185.687 42C184.251 42 182.709 42 181.061 42C179.413 42 177.859 42 176.4 42C174.963 42 173.775 42 172.833 42C171.915 42 171.456 42 171.456 42C171.456 41.5222 171.456 41.0444 171.456 40.5665C171.456 40.0648 171.456 39.587 171.456 39.1331C171.456 39.1331 172.009 39.1331 173.115 39.1331C174.222 39.1331 175.587 39.1331 177.212 39.1331C178.836 39.1331 180.461 39.1331 182.085 39.1331C183.71 39.1331 185.075 39.1331 186.182 39.1331C187.288 39.1331 187.842 39.1331 187.842 39.1331C187.842 39.1331 187.842 38.6314 187.842 37.628C187.842 36.6246 187.842 35.3822 187.842 33.901C187.842 32.3959 187.842 30.9027 187.842 29.4215C187.842 27.9164 187.842 26.6621 187.842 25.6587C187.842 24.6553 187.842 24.1536 187.842 24.1536H190.667ZM155.917 16.413H153.092V0C156.129 0 158.695 0 160.79 0C162.909 0 164.652 0 166.017 0C167.383 0 168.442 0 169.195 0C169.972 0 170.514 0 170.82 0C171.149 0 171.338 0 171.385 0C171.432 0 171.573 0 171.809 0C172.044 0 172.433 0 172.974 0C173.516 0 174.257 0 175.199 0C176.141 0 177.306 0 178.695 0C180.108 0 181.803 0 183.78 0C185.758 0 188.053 0 190.667 0V29.4573H187.842V17.5597C187.842 17.5597 187.5 17.5597 186.817 17.5597C186.158 17.5597 185.299 17.5597 184.239 17.5597C183.18 17.5597 182.062 17.5597 180.885 17.5597C179.707 17.5597 178.589 17.5597 177.53 17.5597C176.47 17.5597 175.599 17.5597 174.916 17.5597C174.257 17.5597 173.928 17.5597 173.928 17.5597C173.928 17.5597 173.928 17.9061 173.928 18.599C173.928 19.2679 173.928 20.1041 173.928 21.1075C173.928 22.087 173.928 23.0785 173.928 24.0819C173.928 25.0614 173.928 25.8976 173.928 26.5904C173.928 27.2594 173.928 27.5939 173.928 27.5939C173.928 27.5939 173.692 27.5939 173.221 27.5939C172.774 27.5939 172.315 27.5939 171.844 27.5939C171.397 27.5939 171.173 27.5939 171.173 27.5939C171.173 27.5939 171.173 27.3788 171.173 26.9488C171.173 26.5188 171.173 25.9334 171.173 25.1928C171.173 24.4283 171.173 23.5563 171.173 22.5768C171.173 21.5734 171.173 20.4983 171.173 19.3515C171.173 18.2048 171.173 17.0341 171.173 15.8396C171.173 14.6212 171.173 13.4266 171.173 12.256C171.173 10.5836 171.173 9.04266 171.173 7.6331C171.173 6.19966 171.173 5.0529 171.173 4.19283C171.173 3.30887 171.173 2.8669 171.173 2.8669C171.173 2.8669 170.655 2.8669 169.619 2.8669C168.607 2.8669 167.335 2.8669 165.805 2.8669C164.298 2.8669 162.78 2.8669 161.25 2.8669C159.743 2.8669 158.471 2.8669 157.436 2.8669C156.423 2.8669 155.917 2.8669 155.917 2.8669V16.413Z" fill="black"/>
<path d="M228.114 32.8259H225.289C225.289 31.5119 225.289 30.4607 225.289 29.6723C225.289 28.884 225.289 28.1314 225.289 27.4147C225.289 26.6741 225.289 25.7304 225.289 24.5836C225.289 23.3891 225.289 22.4812 225.289 21.8601C225.289 21.2389 225.289 20.7253 225.289 20.3191C225.289 19.8891 225.289 19.3993 225.289 18.8498C225.289 18.2764 225.289 17.4403 225.289 16.3413H228.114V32.8259ZM228.114 22.0034C228.114 22.0034 228.114 22.4932 228.114 23.4727C228.114 24.4283 228.114 25.6706 228.114 27.1997C228.114 28.7048 228.114 30.3055 228.114 32.0017C228.114 33.6979 228.114 35.3106 228.114 36.8396C228.114 38.3447 228.114 39.587 228.114 40.5665C228.114 41.5222 228.114 42 228.114 42C228.114 42 227.631 42 226.666 42C225.724 42 224.5 42 222.993 42C221.486 42 219.874 42 218.155 42C216.46 42 214.824 42 213.246 42C211.692 42 210.386 42 209.326 42C208.267 42 207.655 42 207.49 42C207.49 41.5222 207.49 41.0444 207.49 40.5665C207.49 40.0648 207.49 39.587 207.49 39.1331C207.49 39.1331 207.89 39.1331 208.691 39.1331C209.515 39.1331 210.527 39.1331 211.728 39.1331C212.928 39.1331 214.129 39.1331 215.33 39.1331C216.53 39.1331 217.531 39.1331 218.332 39.1331C219.156 39.1331 219.568 39.1331 219.568 39.1331C219.638 39.1331 219.874 38.9539 220.274 38.5956C220.674 38.2372 221.157 37.7833 221.722 37.2338C222.287 36.6843 222.84 36.1348 223.382 35.5853C223.923 35.0119 224.37 34.5222 224.724 34.116C225.1 33.7099 225.289 33.471 225.289 33.3993V22.0034H228.114ZM228.114 27.3072H225.289V15.9113C225.289 15.8396 225.1 15.6007 224.724 15.1945C224.37 14.7884 223.923 14.3106 223.382 13.7611C222.84 13.1877 222.287 12.6263 221.722 12.0768C221.157 11.5273 220.674 11.0734 220.274 10.715C219.874 10.3567 219.638 10.1775 219.568 10.1775C219.568 10.1775 219.156 10.1775 218.332 10.1775C217.531 10.1775 216.53 10.1775 215.33 10.1775C214.129 10.1775 212.928 10.1775 211.728 10.1775C210.527 10.1775 209.515 10.1775 208.691 10.1775C207.89 10.1775 207.49 10.1775 207.49 10.1775C207.49 9.69966 207.49 9.22184 207.49 8.74403C207.49 8.24232 207.49 7.7645 207.49 7.31058C207.655 7.31058 208.267 7.31058 209.326 7.31058C210.386 7.31058 211.692 7.31058 213.246 7.31058C214.824 7.31058 216.46 7.31058 218.155 7.31058C219.874 7.31058 221.486 7.31058 222.993 7.31058C224.5 7.31058 225.724 7.31058 226.666 7.31058C227.631 7.31058 228.114 7.31058 228.114 7.31058C228.114 7.31058 228.114 7.80034 228.114 8.77986C228.114 9.73549 228.114 10.9778 228.114 12.5068C228.114 14.0119 228.114 15.6126 228.114 17.3089C228.114 19.0051 228.114 20.6177 228.114 22.1468C228.114 23.6519 228.114 24.8942 228.114 25.8737C228.114 26.8293 228.114 27.3072 228.114 27.3072ZM206.572 29.0273C206.572 29.0273 206.572 28.5853 206.572 27.7014C206.572 26.7935 206.572 25.7543 206.572 24.5836C206.572 23.413 206.572 22.3857 206.572 21.5017C206.572 20.5939 206.572 20.1399 206.572 20.1399C206.572 19.9966 206.583 19.913 206.607 19.8891C206.631 19.8652 206.713 19.8532 206.854 19.8532C207.113 19.8532 207.36 19.8532 207.596 19.8532C207.855 19.8532 208.102 19.8532 208.337 19.8532C208.596 19.8532 208.855 19.8532 209.114 19.8532C209.256 19.8532 209.338 19.8652 209.362 19.8891C209.385 19.913 209.397 19.9966 209.397 20.1399C209.397 20.1399 209.397 20.5939 209.397 21.5017C209.397 22.3857 209.397 23.413 209.397 24.5836C209.397 25.7543 209.397 26.7935 209.397 27.7014C209.397 28.5853 209.397 29.0273 209.397 29.0273C209.397 29.1706 209.385 29.2543 209.362 29.2782C209.338 29.302 209.256 29.314 209.114 29.314C208.738 29.314 208.361 29.314 207.984 29.314C207.631 29.314 207.254 29.314 206.854 29.314C206.713 29.314 206.631 29.302 206.607 29.2782C206.583 29.2543 206.572 29.1706 206.572 29.0273ZM187.855 32.8259V16.3413H190.68C190.68 17.4403 190.68 18.2764 190.68 18.8498C190.68 19.3993 190.68 19.8891 190.68 20.3191C190.68 20.7253 190.68 21.2389 190.68 21.8601C190.68 22.4812 190.68 23.3891 190.68 24.5836C190.68 25.7304 190.68 26.6741 190.68 27.4147C190.68 28.1314 190.68 28.884 190.68 29.6723C190.68 30.4607 190.68 31.5119 190.68 32.8259H187.855ZM187.855 22.0034H190.68V33.3993C190.68 33.471 190.857 33.7099 191.21 34.116C191.586 34.5222 192.046 35.0119 192.587 35.5853C193.129 36.1348 193.682 36.6843 194.247 37.2338C194.812 37.7833 195.295 38.2372 195.695 38.5956C196.095 38.9539 196.33 39.1331 196.401 39.1331C196.401 39.1331 196.801 39.1331 197.602 39.1331C198.426 39.1331 199.438 39.1331 200.639 39.1331C201.84 39.1331 203.04 39.1331 204.241 39.1331C205.442 39.1331 206.442 39.1331 207.243 39.1331C208.067 39.1331 208.479 39.1331 208.479 39.1331C208.479 39.587 208.479 40.0648 208.479 40.5665C208.479 41.0444 208.479 41.5222 208.479 42C208.314 42 207.702 42 206.642 42C205.583 42 204.264 42 202.687 42C201.133 42 199.497 42 197.778 42C196.083 42 194.482 42 192.975 42C191.469 42 190.233 42 189.267 42C188.326 42 187.855 42 187.855 42C187.855 42 187.855 41.5222 187.855 40.5665C187.855 39.587 187.855 38.3447 187.855 36.8396C187.855 35.3106 187.855 33.6979 187.855 32.0017C187.855 30.3055 187.855 28.7048 187.855 27.1997C187.855 25.6706 187.855 24.4283 187.855 23.4727C187.855 22.4932 187.855 22.0034 187.855 22.0034ZM187.855 27.3072C187.855 27.3072 187.855 26.8293 187.855 25.8737C187.855 24.8942 187.855 23.6519 187.855 22.1468C187.855 20.6177 187.855 19.0051 187.855 17.3089C187.855 15.6126 187.855 14.0119 187.855 12.5068C187.855 10.9778 187.855 9.73549 187.855 8.77986C187.855 7.80034 187.855 7.31058 187.855 7.31058C187.855 7.31058 188.326 7.31058 189.267 7.31058C190.233 7.31058 191.469 7.31058 192.975 7.31058C194.482 7.31058 196.083 7.31058 197.778 7.31058C199.497 7.31058 201.133 7.31058 202.687 7.31058C204.264 7.31058 205.583 7.31058 206.642 7.31058C207.702 7.31058 208.314 7.31058 208.479 7.31058C208.479 7.7645 208.479 8.24232 208.479 8.74403C208.479 9.22184 208.479 9.69966 208.479 10.1775C208.479 10.1775 208.067 10.1775 207.243 10.1775C206.442 10.1775 205.442 10.1775 204.241 10.1775C203.04 10.1775 201.84 10.1775 200.639 10.1775C199.438 10.1775 198.426 10.1775 197.602 10.1775C196.801 10.1775 196.401 10.1775 196.401 10.1775C196.33 10.1775 196.095 10.3567 195.695 10.715C195.295 11.0734 194.812 11.5273 194.247 12.0768C193.682 12.6263 193.129 13.1877 192.587 13.7611C192.046 14.3106 191.586 14.7884 191.21 15.1945C190.857 15.6007 190.68 15.8396 190.68 15.9113V27.3072H187.855Z" fill="black"/>
<path d="M225.308 27.0921H228.133V28.8123C228.133 28.8362 228.463 29.2065 229.122 29.9232C229.781 30.616 230.593 31.4761 231.559 32.5034C232.547 33.5307 233.536 34.558 234.525 35.5853C235.514 36.5887 236.35 37.4369 237.032 38.1297C237.715 38.7986 238.068 39.1331 238.092 39.1331C238.092 39.1331 238.48 39.1331 239.257 39.1331C240.058 39.1331 240.976 39.1331 242.012 39.1331C243.048 39.1331 243.954 39.1331 244.731 39.1331C245.532 39.1331 245.932 39.1331 245.932 39.1331C245.932 39.587 245.932 40.0648 245.932 40.5665C245.932 41.0444 245.932 41.5222 245.932 42C244.802 42 243.754 42 242.789 42C241.823 42 240.952 42 240.175 42C239.399 42 238.704 42 238.092 42C237.503 42 236.997 42 236.573 42C236.15 42 235.82 42 235.585 42C235.373 42 235.243 42 235.196 42C235.031 42 234.76 42 234.384 42C234.031 42 233.607 42 233.112 42C232.618 42 232.065 42 231.453 42C230.841 42 230.193 42 229.51 42C228.851 42 228.168 42 227.462 42C226.779 42 226.085 42 225.379 42L225.308 27.0921ZM265.708 27.0921L265.637 42C264.955 42 264.26 42 263.554 42C262.848 42 262.153 42 261.47 42C260.811 42 260.175 42 259.563 42C258.951 42 258.398 42 257.903 42C257.409 42 256.985 42 256.632 42C256.279 42 256.008 42 255.82 42C255.796 42 255.667 42 255.431 42C255.196 42 254.866 42 254.443 42C254.019 42 253.501 42 252.889 42C252.3 42 251.617 42 250.841 42C250.064 42 249.192 42 248.227 42C247.262 42 246.214 42 245.084 42C245.084 41.5222 245.084 41.0444 245.084 40.5665C245.084 40.0648 245.084 39.587 245.084 39.1331C245.084 39.1331 245.473 39.1331 246.25 39.1331C247.05 39.1331 247.968 39.1331 249.004 39.1331C250.04 39.1331 250.946 39.1331 251.723 39.1331C252.524 39.1331 252.924 39.1331 252.924 39.1331C252.948 39.1331 253.301 38.7986 253.984 38.1297C254.666 37.4369 255.502 36.5887 256.491 35.5853C257.48 34.558 258.457 33.5307 259.422 32.5034C260.411 31.4761 261.235 30.616 261.894 29.9232C262.553 29.2065 262.883 28.8362 262.883 28.8123V27.0921H265.708ZM265.708 30.6758H262.883C262.883 29.3618 262.883 28.3106 262.883 27.5222C262.883 26.7338 262.883 25.9812 262.883 25.2645C262.883 24.5239 262.883 23.5802 262.883 22.4334C262.883 21.2389 262.883 20.3311 262.883 19.7099C262.883 19.0887 262.883 18.5751 262.883 18.1689C262.883 17.7389 262.883 17.2491 262.883 16.6997C262.883 16.1263 262.883 15.2901 262.883 14.1911H265.708V30.6758ZM225.308 30.6758V14.1911H228.133C228.133 15.2901 228.133 16.1263 228.133 16.6997C228.133 17.2491 228.133 17.7389 228.133 18.1689C228.133 18.5751 228.133 19.0887 228.133 19.7099C228.133 20.3311 228.133 21.2389 228.133 22.4334C228.133 23.5802 228.133 24.5239 228.133 25.2645C228.133 25.9812 228.133 26.7338 228.133 27.5222C228.133 28.3106 228.133 29.3618 228.133 30.6758H225.308ZM225.308 27.3072C225.308 27.3072 225.308 26.8293 225.308 25.8737C225.308 24.8942 225.308 23.6519 225.308 22.1468C225.308 20.6177 225.308 19.0051 225.308 17.3089C225.308 15.6126 225.308 14.0119 225.308 12.5068C225.308 10.9778 225.308 9.73549 225.308 8.77986C225.308 7.80034 225.308 7.31058 225.308 7.31058C225.308 7.31058 225.802 7.31058 226.791 7.31058C227.78 7.31058 229.051 7.31058 230.605 7.31058C232.183 7.31058 233.854 7.31058 235.62 7.31058C237.386 7.31058 239.045 7.31058 240.599 7.31058C242.177 7.31058 243.46 7.31058 244.449 7.31058C245.437 7.31058 245.932 7.31058 245.932 7.31058C245.932 7.7645 245.932 8.24232 245.932 8.74403C245.932 9.22184 245.932 9.69966 245.932 10.1775C245.932 10.1775 245.496 10.1775 244.625 10.1775C243.778 10.1775 242.671 10.1775 241.306 10.1775C239.964 10.1775 238.539 10.1775 237.032 10.1775C235.526 10.1775 234.09 10.1775 232.724 10.1775C231.382 10.1775 230.276 10.1775 229.404 10.1775C228.557 10.1775 228.133 10.1775 228.133 10.1775C228.133 10.1775 228.133 10.5956 228.133 11.4317C228.133 12.244 228.133 13.3072 228.133 14.6212C228.133 15.9113 228.133 17.285 228.133 18.7423C228.133 20.1997 228.133 21.5853 228.133 22.8993C228.133 24.1894 228.133 25.2526 228.133 26.0887C228.133 26.901 228.133 27.3072 228.133 27.3072H225.308ZM265.708 27.3072H262.883C262.883 27.3072 262.883 26.901 262.883 26.0887C262.883 25.2526 262.883 24.1894 262.883 22.8993C262.883 21.5853 262.883 20.1997 262.883 18.7423C262.883 17.285 262.883 15.9113 262.883 14.6212C262.883 13.3072 262.883 12.244 262.883 11.4317C262.883 10.5956 262.883 10.1775 262.883 10.1775C262.883 10.1775 262.447 10.1775 261.576 10.1775C260.729 10.1775 259.622 10.1775 258.257 10.1775C256.915 10.1775 255.49 10.1775 253.984 10.1775C252.477 10.1775 251.041 10.1775 249.675 10.1775C248.333 10.1775 247.227 10.1775 246.356 10.1775C245.508 10.1775 245.084 10.1775 245.084 10.1775C245.084 9.69966 245.084 9.22184 245.084 8.74403C245.084 8.24232 245.084 7.7645 245.084 7.31058C245.084 7.31058 245.579 7.31058 246.567 7.31058C247.556 7.31058 248.828 7.31058 250.381 7.31058C251.959 7.31058 253.63 7.31058 255.396 7.31058C257.162 7.31058 258.822 7.31058 260.376 7.31058C261.953 7.31058 263.236 7.31058 264.225 7.31058C265.214 7.31058 265.708 7.31058 265.708 7.31058C265.708 7.31058 265.708 7.80034 265.708 8.77986C265.708 9.73549 265.708 10.9778 265.708 12.5068C265.708 14.0119 265.708 15.6126 265.708 17.3089C265.708 19.0051 265.708 20.6177 265.708 22.1468C265.708 23.6519 265.708 24.8942 265.708 25.8737C265.708 26.8293 265.708 27.3072 265.708 27.3072ZM244.378 10.0341C244.378 10.0341 244.566 10.0341 244.943 10.0341C245.32 10.0341 245.696 10.0341 246.073 10.0341C246.45 10.0341 246.638 10.0341 246.638 10.0341C246.709 10.0341 246.756 10.0341 246.779 10.0341C246.826 10.0341 246.862 10.0461 246.885 10.07C246.909 10.0939 246.921 10.1297 246.921 10.1775C246.921 10.2014 246.921 10.2491 246.921 10.3208C246.921 10.3208 246.921 10.6911 246.921 11.4317C246.921 12.1724 246.921 13.128 246.921 14.2986C246.921 15.4454 246.921 16.6758 246.921 17.9898C246.921 19.3038 246.921 20.5461 246.921 21.7167C246.921 22.8635 246.921 23.8072 246.921 24.5478C246.921 25.2884 246.921 25.6587 246.921 25.6587C246.921 25.7543 246.909 25.8259 246.885 25.8737C246.885 25.8976 246.862 25.9215 246.815 25.9454C246.791 25.9454 246.732 25.9454 246.638 25.9454C246.638 25.9454 246.45 25.9454 246.073 25.9454C245.696 25.9454 245.32 25.9454 244.943 25.9454C244.566 25.9454 244.378 25.9454 244.378 25.9454C244.284 25.9454 244.213 25.9454 244.166 25.9454C244.142 25.9215 244.119 25.8976 244.095 25.8737C244.095 25.8259 244.095 25.7543 244.095 25.6587C244.095 25.6587 244.095 25.2884 244.095 24.5478C244.095 23.8072 244.095 22.8635 244.095 21.7167C244.095 20.5461 244.095 19.3038 244.095 17.9898C244.095 16.6758 244.095 15.4454 244.095 14.2986C244.095 13.128 244.095 12.1724 244.095 11.4317C244.095 10.6911 244.095 10.3208 244.095 10.3208C244.095 10.2491 244.095 10.2014 244.095 10.1775C244.095 10.1297 244.107 10.0939 244.131 10.07C244.154 10.0461 244.178 10.0341 244.201 10.0341C244.248 10.0341 244.307 10.0341 244.378 10.0341Z" fill="black"/>
<path d="M262.899 27.3072C262.899 26.2082 262.899 24.9659 262.899 23.5802C262.899 22.1945 262.899 20.7491 262.899 19.244C262.899 17.7389 262.899 16.2816 262.899 14.872C262.899 13.4625 262.899 12.1843 262.899 11.0375C262.899 9.89078 262.899 8.98293 262.899 8.31399C262.899 7.64505 262.899 7.31058 262.899 7.31058C262.899 7.31058 263.37 7.31058 264.311 7.31058C265.23 7.31058 266.407 7.31058 267.843 7.31058C269.303 7.31058 270.856 7.31058 272.505 7.31058C274.153 7.31058 275.695 7.31058 277.131 7.31058C278.59 7.31058 279.779 7.31058 280.698 7.31058C281.639 7.31058 282.11 7.31058 282.11 7.31058C282.11 7.7645 282.11 8.24232 282.11 8.74403C282.11 9.22184 282.11 9.69966 282.11 10.1775C281.992 10.1775 281.604 10.1775 280.945 10.1775C280.286 10.1775 279.473 10.1775 278.508 10.1775C277.566 10.1775 276.601 10.1775 275.612 10.1775C274.647 10.1775 273.776 10.1775 272.999 10.1775C272.246 10.1775 271.728 10.1775 271.445 10.1775C271.374 10.1775 271.139 10.3567 270.739 10.715C270.339 11.0734 269.856 11.5273 269.291 12.0768C268.726 12.6263 268.173 13.1877 267.631 13.7611C267.09 14.3106 266.63 14.7884 266.254 15.1945C265.901 15.6007 265.724 15.8396 265.724 15.9113V27.3072H262.899ZM262.899 16.413H265.724C265.724 17.727 265.724 18.7782 265.724 19.5665C265.724 20.3549 265.724 21.1194 265.724 21.8601C265.724 22.5768 265.724 23.5085 265.724 24.6553C265.724 25.8498 265.724 26.7577 265.724 27.3788C265.724 28 265.724 28.5256 265.724 28.9556C265.724 29.3618 265.724 29.8515 265.724 30.4249C265.724 30.9744 265.724 31.7986 265.724 32.8976H262.899V16.413ZM262.899 22.0034H265.724V33.3993C265.724 33.471 265.901 33.7099 266.254 34.116C266.63 34.5222 267.09 35.0119 267.631 35.5853C268.173 36.1348 268.726 36.6843 269.291 37.2338C269.856 37.7833 270.339 38.2372 270.739 38.5956C271.139 38.9539 271.374 39.1331 271.445 39.1331C271.728 39.1331 272.246 39.1331 272.999 39.1331C273.776 39.1331 274.647 39.1331 275.612 39.1331C276.601 39.1331 277.566 39.1331 278.508 39.1331C279.473 39.1331 280.286 39.1331 280.945 39.1331C281.604 39.1331 281.992 39.1331 282.11 39.1331C282.11 39.587 282.11 40.0648 282.11 40.5665C282.11 41.0444 282.11 41.5222 282.11 42C282.11 42 281.639 42 280.698 42C279.779 42 278.59 42 277.131 42C275.695 42 274.153 42 272.505 42C270.856 42 269.303 42 267.843 42C266.407 42 265.23 42 264.311 42C263.37 42 262.899 42 262.899 42C262.899 42 262.899 41.6655 262.899 40.9966C262.899 40.3276 262.899 39.4198 262.899 38.273C262.899 37.1263 262.899 35.8481 262.899 34.4386C262.899 33.029 262.899 31.5836 262.899 30.1024C262.899 28.5973 262.899 27.1399 262.899 25.7304C262.899 24.3208 262.899 23.0785 262.899 22.0034ZM300.474 27.3072H297.649V15.9113C297.649 15.8396 297.46 15.6007 297.084 15.1945C296.731 14.7884 296.283 14.3106 295.742 13.7611C295.2 13.1877 294.647 12.6263 294.082 12.0768C293.517 11.5273 293.034 11.0734 292.634 10.715C292.234 10.3567 291.998 10.1775 291.928 10.1775C291.645 10.1775 291.115 10.1775 290.339 10.1775C289.585 10.1775 288.714 10.1775 287.725 10.1775C286.76 10.1775 285.795 10.1775 284.829 10.1775C283.888 10.1775 283.087 10.1775 282.428 10.1775C281.769 10.1775 281.38 10.1775 281.263 10.1775C281.263 9.69966 281.263 9.22184 281.263 8.74403C281.263 8.24232 281.263 7.7645 281.263 7.31058C281.263 7.31058 281.722 7.31058 282.64 7.31058C283.582 7.31058 284.771 7.31058 286.207 7.31058C287.666 7.31058 289.22 7.31058 290.868 7.31058C292.516 7.31058 294.058 7.31058 295.494 7.31058C296.954 7.31058 298.143 7.31058 299.061 7.31058C300.003 7.31058 300.474 7.31058 300.474 7.31058C300.474 7.31058 300.474 7.64505 300.474 8.31399C300.474 8.98293 300.474 9.89078 300.474 11.0375C300.474 12.1843 300.474 13.4625 300.474 14.872C300.474 16.2816 300.474 17.7389 300.474 19.244C300.474 20.7491 300.474 22.1945 300.474 23.5802C300.474 24.9659 300.474 26.2082 300.474 27.3072ZM300.474 24.1536C300.474 24.1536 300.474 24.5836 300.474 25.4437C300.474 26.3038 300.474 27.4147 300.474 28.7764C300.474 30.1143 300.474 31.5478 300.474 33.0768C300.474 34.6058 300.474 36.0512 300.474 37.413C300.474 38.7509 300.474 39.8498 300.474 40.7099C300.474 41.57 300.474 42 300.474 42C300.474 42 300.003 42 299.061 42C298.143 42 296.954 42 295.494 42C294.058 42 292.516 42 290.868 42C289.22 42 287.666 42 286.207 42C284.771 42 283.582 42 282.64 42C281.722 42 281.263 42 281.263 42C281.263 41.5222 281.263 41.0444 281.263 40.5665C281.263 40.0648 281.263 39.587 281.263 39.1331C281.263 39.1331 281.816 39.1331 282.922 39.1331C284.029 39.1331 285.394 39.1331 287.019 39.1331C288.643 39.1331 290.268 39.1331 291.892 39.1331C293.517 39.1331 294.882 39.1331 295.989 39.1331C297.095 39.1331 297.649 39.1331 297.649 39.1331C297.649 39.1331 297.649 38.6314 297.649 37.628C297.649 36.6246 297.649 35.3822 297.649 33.901C297.649 32.3959 297.649 30.9027 297.649 29.4215C297.649 27.9164 297.649 26.6621 297.649 25.6587C297.649 24.6553 297.649 24.1536 297.649 24.1536H300.474ZM286.207 18.9932C286.348 18.9932 286.43 19.0051 286.454 19.029C286.477 19.0529 286.489 19.1365 286.489 19.2799C286.489 19.5427 286.489 19.8055 286.489 20.0683C286.489 20.3072 286.489 20.558 286.489 20.8208C286.489 21.0597 286.489 21.3106 286.489 21.5734C286.489 21.7167 286.477 21.8003 286.454 21.8242C286.43 21.8481 286.348 21.8601 286.207 21.8601C286.207 21.8601 285.759 21.8601 284.865 21.8601C283.994 21.8601 282.981 21.8601 281.828 21.8601C280.674 21.8601 279.65 21.8601 278.755 21.8601C277.884 21.8601 277.449 21.8601 277.449 21.8601C277.307 21.8601 277.225 21.8481 277.201 21.8242C277.178 21.8003 277.166 21.7167 277.166 21.5734C277.166 21.3106 277.166 21.0597 277.166 20.8208C277.166 20.558 277.166 20.3072 277.166 20.0683C277.166 19.8055 277.166 19.5427 277.166 19.2799C277.166 19.1365 277.178 19.0529 277.201 19.029C277.225 19.0051 277.307 18.9932 277.449 18.9932C277.449 18.9932 277.884 18.9932 278.755 18.9932C279.65 18.9932 280.674 18.9932 281.828 18.9932C282.981 18.9932 283.994 18.9932 284.865 18.9932C285.759 18.9932 286.207 18.9932 286.207 18.9932ZM298.991 30.3174H297.649C297.649 30.3174 297.649 30.2338 297.649 30.0665C297.649 29.8993 297.649 29.7321 297.649 29.5648C297.649 29.3976 297.649 29.314 297.649 29.314C297.649 29.314 297.166 29.3857 296.201 29.529C295.259 29.6724 294.082 29.8515 292.669 30.0665C291.28 30.2577 289.879 30.4607 288.467 30.6758C287.078 30.8669 285.901 31.0341 284.935 31.1775C283.994 31.3208 283.523 31.3925 283.523 31.3925C283.523 31.3925 283.511 31.3447 283.487 31.2491C283.487 31.1536 283.464 31.0102 283.417 30.8191C283.393 30.6041 283.358 30.3413 283.311 30.0307C283.264 29.7201 283.217 29.4573 283.17 29.2423C283.146 29.0273 283.123 28.872 283.099 28.7764C283.099 28.657 283.099 28.5973 283.099 28.5973C283.099 28.5973 283.582 28.5256 284.547 28.3822C285.536 28.2389 286.748 28.0597 288.184 27.8447C289.644 27.6297 291.092 27.4147 292.528 27.1997C293.988 26.9846 295.2 26.8055 296.165 26.6621C297.154 26.5188 297.649 26.4471 297.649 26.4471C297.649 26.4471 297.649 26.3396 297.649 26.1246C297.649 25.8857 297.649 25.6587 297.649 25.4437C297.649 25.2048 297.649 25.0853 297.649 25.0853H298.991V30.3174Z" fill="black"/>
<path d="M317.862 42C317.768 42 317.215 42 316.202 42C315.19 42 313.919 42 312.388 42C310.858 42 309.245 42 307.55 42C305.855 42 304.254 42 302.747 42C301.241 42 300.016 42 299.075 42C298.133 42 297.662 42 297.662 42V23.5085H300.487V39.1331C300.487 39.1331 300.899 39.1331 301.723 39.1331C302.547 39.1331 303.501 39.1331 304.584 39.1331C305.667 39.1331 306.62 39.1331 307.444 39.1331C308.268 39.1331 308.68 39.1331 308.68 39.1331C308.68 39.1331 309.092 39.1331 309.916 39.1331C310.74 39.1331 311.694 39.1331 312.777 39.1331C313.86 39.1331 314.813 39.1331 315.637 39.1331C316.461 39.1331 316.873 39.1331 316.873 39.1331C316.873 39.1331 316.873 39.0734 316.873 38.9539C316.873 38.8345 316.873 38.4761 316.873 37.8788C316.873 37.2816 316.873 36.2901 316.873 34.9044C316.873 33.5188 316.873 31.5597 316.873 29.0273C316.873 29.0273 317.391 29.0273 318.427 29.0273C319.486 29.0273 320.781 29.0273 322.312 29.0273C323.866 29.0273 325.408 29.0273 326.938 29.0273C328.492 29.0273 329.787 29.0273 330.823 29.0273C331.882 29.0273 332.412 29.0273 332.412 29.0273C332.412 29.0273 332.412 28.645 332.412 27.8805C332.412 27.116 332.412 26.1724 332.412 25.0495C332.412 23.9266 332.412 22.8038 332.412 21.6809C332.412 20.558 332.412 19.6143 332.412 18.8498C332.412 18.0853 332.412 17.7031 332.412 17.7031H335.237V42C335.237 42 334.825 42 334.001 42C333.2 42 332.153 42 330.858 42C329.563 42 328.174 42 326.691 42C325.231 42 323.842 42 322.524 42C321.205 42 320.11 42 319.239 42C318.392 42 317.933 42 317.862 42ZM297.662 25.157C297.662 25.157 297.662 24.727 297.662 23.8669C297.662 23.0068 297.662 21.9078 297.662 20.57C297.662 19.2082 297.662 17.7628 297.662 16.2338C297.662 14.7048 297.662 13.2713 297.662 11.9334C297.662 10.5717 297.662 9.46075 297.662 8.60068C297.662 7.74061 297.662 7.31058 297.662 7.31058C297.662 7.31058 298.133 7.31058 299.075 7.31058C299.993 7.31058 301.193 7.31058 302.677 7.31058C304.16 7.31058 305.725 7.31058 307.374 7.31058C309.022 7.31058 310.587 7.31058 312.07 7.31058C313.554 7.31058 314.754 7.31058 315.673 7.31058C316.614 7.31058 317.085 7.31058 317.085 7.31058C317.085 7.57338 317.085 8.0273 317.085 8.67235C317.085 9.3174 317.085 10.058 317.085 10.8942C317.085 11.7304 317.085 12.5904 317.085 13.4744C317.085 14.3584 317.085 15.1945 317.085 15.9829C317.085 16.7474 317.085 17.3686 317.085 17.8464C317.085 17.8464 316.885 17.4642 316.485 16.6997C316.108 15.9113 315.673 15.0154 315.178 14.0119C314.684 13.0085 314.236 12.1246 313.836 11.3601C313.459 10.5717 313.271 10.1775 313.271 10.1775C313.271 10.1775 312.836 10.1775 311.964 10.1775C311.117 10.1775 310.057 10.1775 308.786 10.1775C307.515 10.1775 306.243 10.1775 304.972 10.1775C303.701 10.1775 302.63 10.1775 301.758 10.1775C300.911 10.1775 300.487 10.1775 300.487 10.1775C300.487 10.1775 300.487 10.6792 300.487 11.6826C300.487 12.686 300.487 13.9403 300.487 15.4454C300.487 16.9266 300.487 18.4198 300.487 19.9249C300.487 21.4061 300.487 22.6485 300.487 23.6519C300.487 24.6553 300.487 25.157 300.487 25.157H297.662ZM335.237 21.7167H332.412C332.412 21.7167 332.412 21.6809 332.412 21.6092C332.412 21.5375 332.412 21.3345 332.412 21C332.412 20.6416 332.412 20.0563 332.412 19.244C332.412 18.4317 332.412 17.2969 332.412 15.8396C332.412 14.3823 332.412 12.4949 332.412 10.1775C332.412 10.1775 332.129 10.1775 331.564 10.1775C331.023 10.1775 330.316 10.1775 329.445 10.1775C328.598 10.1775 327.691 10.1775 326.726 10.1775C325.761 10.1775 324.843 10.1775 323.971 10.1775C323.124 10.1775 322.418 10.1775 321.853 10.1775C321.311 10.1775 321.04 10.1775 321.04 10.1775C321.04 10.1775 320.84 10.5717 320.44 11.3601C320.04 12.1246 319.581 13.0085 319.063 14.0119C318.545 15.0154 318.086 15.9113 317.685 16.6997C317.285 17.4642 317.085 17.8464 317.085 17.8464C317.085 17.8464 317.026 17.4642 316.909 16.6997C316.814 15.9113 316.697 15.0154 316.555 14.0119C316.438 13.0085 316.32 12.1246 316.202 11.3601C316.108 10.5717 316.061 10.1775 316.061 10.1775C316.061 10.1775 316.061 10.0819 316.061 9.89078C316.061 9.69966 316.061 9.46075 316.061 9.17406C316.061 8.88737 316.061 8.60068 316.061 8.31399C316.061 8.0273 316.061 7.7884 316.061 7.59727C316.061 7.40614 316.061 7.31058 316.061 7.31058C316.061 7.31058 316.52 7.31058 317.438 7.31058C318.356 7.31058 319.545 7.31058 321.005 7.31058C322.465 7.31058 324.007 7.31058 325.631 7.31058C327.279 7.31058 328.833 7.31058 330.293 7.31058C331.753 7.31058 332.941 7.31058 333.86 7.31058C334.778 7.31058 335.237 7.31058 335.237 7.31058C335.237 7.31058 335.237 7.65699 335.237 8.34983C335.237 9.04266 335.237 9.93857 335.237 11.0375C335.237 12.1365 335.237 13.2952 335.237 14.5136C335.237 15.7321 335.237 16.8908 335.237 17.9898C335.237 19.0887 335.237 19.9846 335.237 20.6775C335.237 21.3703 335.237 21.7167 335.237 21.7167Z" fill="black"/>
<path d="M370 22.0034C370 23.0785 370 24.3208 370 25.7304C370 27.1399 370 28.5973 370 30.1024C370 31.5836 370 33.029 370 34.4386C370 35.8481 370 37.1263 370 38.273C370 39.4198 370 40.3276 370 40.9966C370 41.6655 370 42 370 42C370 42 369.529 42 368.587 42C367.669 42 366.48 42 365.021 42C363.584 42 362.042 42 360.394 42C358.746 42 357.192 42 355.733 42C354.297 42 353.108 42 352.166 42C351.248 42 350.789 42 350.789 42C350.789 41.5222 350.789 41.0444 350.789 40.5665C350.789 40.0648 350.789 39.587 350.789 39.1331C350.906 39.1331 351.295 39.1331 351.954 39.1331C352.613 39.1331 353.414 39.1331 354.355 39.1331C355.321 39.1331 356.286 39.1331 357.251 39.1331C358.24 39.1331 359.111 39.1331 359.865 39.1331C360.642 39.1331 361.171 39.1331 361.454 39.1331C361.524 39.1331 361.76 38.9539 362.16 38.5956C362.56 38.2372 363.043 37.7833 363.608 37.2338C364.173 36.6843 364.726 36.1348 365.268 35.5853C365.809 35.0119 366.257 34.5222 366.61 34.116C366.986 33.7099 367.175 33.471 367.175 33.3993V22.0034H370ZM332.425 27.3072C332.425 26.2082 332.425 24.9659 332.425 23.5802C332.425 22.1945 332.425 20.7491 332.425 19.244C332.425 17.7389 332.425 16.2816 332.425 14.872C332.425 13.4625 332.425 12.1843 332.425 11.0375C332.425 9.89078 332.425 8.98293 332.425 8.31399C332.425 7.64505 332.425 7.31058 332.425 7.31058C332.425 7.31058 332.896 7.31058 333.838 7.31058C334.756 7.31058 335.933 7.31058 337.369 7.31058C338.829 7.31058 340.383 7.31058 342.031 7.31058C343.679 7.31058 345.221 7.31058 346.657 7.31058C348.117 7.31058 349.305 7.31058 350.224 7.31058C351.165 7.31058 351.636 7.31058 351.636 7.31058C351.636 7.7645 351.636 8.24232 351.636 8.74403C351.636 9.22184 351.636 9.69966 351.636 10.1775C351.519 10.1775 351.13 10.1775 350.471 10.1775C349.812 10.1775 348.999 10.1775 348.034 10.1775C347.092 10.1775 346.127 10.1775 345.138 10.1775C344.173 10.1775 343.302 10.1775 342.525 10.1775C341.772 10.1775 341.254 10.1775 340.971 10.1775C340.901 10.1775 340.665 10.3567 340.265 10.715C339.865 11.0734 339.382 11.5273 338.817 12.0768C338.252 12.6263 337.699 13.1877 337.157 13.7611C336.616 14.3106 336.157 14.7884 335.78 15.1945C335.427 15.6007 335.25 15.8396 335.25 15.9113V27.3072H332.425ZM370 25.157H367.175C367.175 25.157 367.175 24.6553 367.175 23.6519C367.175 22.6485 367.175 21.4061 367.175 19.9249C367.175 18.4198 367.175 16.9266 367.175 15.4454C367.175 13.9403 367.175 12.686 367.175 11.6826C367.175 10.6792 367.175 10.1775 367.175 10.1775C367.175 10.1775 366.622 10.1775 365.515 10.1775C364.408 10.1775 363.043 10.1775 361.418 10.1775C359.794 10.1775 358.169 10.1775 356.545 10.1775C354.921 10.1775 353.555 10.1775 352.449 10.1775C351.342 10.1775 350.789 10.1775 350.789 10.1775C350.789 9.69966 350.789 9.22184 350.789 8.74403C350.789 8.24232 350.789 7.7645 350.789 7.31058C350.789 7.31058 351.248 7.31058 352.166 7.31058C353.108 7.31058 354.297 7.31058 355.733 7.31058C357.192 7.31058 358.746 7.31058 360.394 7.31058C362.042 7.31058 363.584 7.31058 365.021 7.31058C366.48 7.31058 367.669 7.31058 368.587 7.31058C369.529 7.31058 370 7.31058 370 7.31058C370 7.31058 370 7.74061 370 8.60068C370 9.46075 370 10.5717 370 11.9334C370 13.2713 370 14.7048 370 16.2338C370 17.7628 370 19.2082 370 20.57C370 21.9078 370 23.0068 370 23.8669C370 24.727 370 25.157 370 25.157ZM332.425 24.1536H335.25C335.25 24.1536 335.25 24.6553 335.25 25.6587C335.25 26.6621 335.25 27.9164 335.25 29.4215C335.25 30.9027 335.25 32.3959 335.25 33.901C335.25 35.3822 335.25 36.6246 335.25 37.628C335.25 38.6314 335.25 39.1331 335.25 39.1331C335.25 39.1331 335.803 39.1331 336.91 39.1331C338.016 39.1331 339.382 39.1331 341.006 39.1331C342.631 39.1331 344.255 39.1331 345.88 39.1331C347.504 39.1331 348.87 39.1331 349.976 39.1331C351.083 39.1331 351.636 39.1331 351.636 39.1331C351.636 39.587 351.636 40.0648 351.636 40.5665C351.636 41.0444 351.636 41.5222 351.636 42C351.636 42 351.165 42 350.224 42C349.305 42 348.117 42 346.657 42C345.221 42 343.679 42 342.031 42C340.383 42 338.829 42 337.369 42C335.933 42 334.756 42 333.838 42C332.896 42 332.425 42 332.425 42C332.425 42 332.425 41.57 332.425 40.7099C332.425 39.8498 332.425 38.7509 332.425 37.413C332.425 36.0512 332.425 34.6058 332.425 33.0768C332.425 31.5478 332.425 30.1143 332.425 28.7764C332.425 27.4147 332.425 26.3038 332.425 25.4437C332.425 24.5836 332.425 24.1536 332.425 24.1536ZM333.838 29.8157V24.5836H335.18C335.18 24.5836 335.18 24.7031 335.18 24.942C335.18 25.157 335.18 25.384 335.18 25.6229C335.18 25.8379 335.18 25.9454 335.18 25.9454C335.18 25.9454 335.662 26.0171 336.627 26.1604C337.616 26.3038 338.829 26.4829 340.265 26.6979C341.725 26.913 343.172 27.128 344.609 27.343C346.068 27.558 347.281 27.7372 348.246 27.8805C349.235 28.0239 349.729 28.0956 349.729 28.0956C349.729 28.0956 349.717 28.1553 349.694 28.2747C349.694 28.3703 349.67 28.5256 349.623 28.7406C349.6 28.9556 349.564 29.2184 349.517 29.529C349.47 29.8396 349.423 30.1024 349.376 30.3174C349.353 30.5085 349.329 30.6519 349.305 30.7474C349.305 30.843 349.305 30.8908 349.305 30.8908C349.305 30.8908 348.823 30.8191 347.858 30.6758C346.916 30.5324 345.739 30.3652 344.326 30.1741C342.937 29.959 341.536 29.756 340.124 29.5648C338.735 29.3498 337.557 29.1706 336.592 29.0273C335.65 28.884 335.18 28.8123 335.18 28.8123C335.18 28.8123 335.18 28.8959 335.18 29.0631C335.18 29.2304 335.18 29.3976 335.18 29.5648C335.18 29.7321 335.18 29.8157 335.18 29.8157H333.838ZM368.658 20.1399V25.372H367.316C367.316 25.372 367.316 25.2645 367.316 25.0495C367.316 24.8106 367.316 24.5836 367.316 24.3686C367.316 24.1297 367.316 24.0102 367.316 24.0102C367.316 24.0102 366.822 23.9386 365.833 23.7952C364.868 23.6519 363.655 23.4727 362.195 23.2577C360.759 23.0427 359.311 22.8276 357.852 22.6126C356.416 22.3976 355.203 22.2184 354.214 22.0751C353.249 21.9317 352.766 21.8601 352.766 21.8601C352.766 21.8601 352.766 21.8123 352.766 21.7167C352.79 21.5973 352.813 21.43 352.837 21.215C352.884 21 352.931 20.7372 352.978 20.4266C353.025 20.116 353.061 19.8652 353.084 19.6741C353.131 19.459 353.155 19.3038 353.155 19.2082C353.178 19.1126 353.19 19.0648 353.19 19.0648C353.19 19.0648 353.661 19.1365 354.603 19.2799C355.568 19.4232 356.745 19.6024 358.134 19.8174C359.547 20.0085 360.948 20.2116 362.337 20.4266C363.749 20.6177 364.926 20.785 365.868 20.9283C366.833 21.0717 367.316 21.1433 367.316 21.1433C367.316 21.1433 367.316 21.0597 367.316 20.8925C367.316 20.7253 367.316 20.558 367.316 20.3908C367.316 20.2235 367.316 20.1399 367.316 20.1399H368.658Z" fill="black"/>
</g>
<defs>
<filter id="filter0_d_405_3032" x="0" y="0" width="155.238" height="50" filterUnits="userSpaceOnUse" color-interpolation-filters="sRGB">
<feFlood flood-opacity="0" result="BackgroundImageFix"/>
<feColorMatrix in="SourceAlpha" type="matrix" values="0 0 0 0 0 0 0 0 0 0 0 0 0 0 0 0 0 0 127 0" result="hardAlpha"/>
<feOffset dy="4"/>
<feGaussianBlur stdDeviation="2"/>
<feComposite in2="hardAlpha" operator="out"/>
<feColorMatrix type="matrix" values="0 0 0 0 0 0 0 0 0 0 0 0 0 0 0 0 0 0 0.25 0"/>
<feBlend mode="normal" in2="BackgroundImageFix" result="effect1_dropShadow_405_3032"/>
<feBlend mode="normal" in="SourceGraphic" in2="effect1_dropShadow_405_3032" result="shape"/>
</filter>
<filter id="filter1_d_405_3032" x="149.092" y="0" width="224.908" height="50" filterUnits="userSpaceOnUse" color-interpolation-filters="sRGB">
<feFlood flood-opacity="0" result="BackgroundImageFix"/>
<feColorMatrix in="SourceAlpha" type="matrix" values="0 0 0 0 0 0 0 0 0 0 0 0 0 0 0 0 0 0 127 0" result="hardAlpha"/>
<feOffset dy="4"/>
<feGaussianBlur stdDeviation="2"/>
<feComposite in2="hardAlpha" operator="out"/>
<feColorMatrix type="matrix" values="0 0 0 0 0 0 0 0 0 0 0 0 0 0 0 0 0 0 0.25 0"/>
<feBlend mode="normal" in2="BackgroundImageFix" result="effect1_dropShadow_405_3032"/>
<feBlend mode="normal" in="SourceGraphic" in2="effect1_dropShadow_405_3032" result="shape"/>
</filter>
<linearGradient id="paint0_linear_405_3032" x1="190.065" y1="1.18665" x2="190.065" y2="42.0001" gradientUnits="userSpaceOnUse">
<stop offset="0.115" stop-color="white"/>
<stop offset="0.52" stop-color="#F3D434"/>
<stop offset="1" stop-color="#E84E99"/>
</linearGradient>
<linearGradient id="paint1_linear_405_3032" x1="190.065" y1="1.18665" x2="190.065" y2="42.0001" gradientUnits="userSpaceOnUse">
<stop offset="0.115" stop-color="white"/>
<stop offset="0.52" stop-color="#F3D434"/>
<stop offset="1" stop-color="#E84E99"/>
</linearGradient>
<linearGradient id="paint2_linear_405_3032" x1="190.065" y1="1.18665" x2="190.065" y2="42.0001" gradientUnits="userSpaceOnUse">
<stop offset="0.115" stop-color="white"/>
<stop offset="0.52" stop-color="#F3D434"/>
<stop offset="1" stop-color="#E84E99"/>
</linearGradient>
<linearGradient id="paint3_linear_405_3032" x1="183.198" y1="1.18656" x2="183.198" y2="42" gradientUnits="userSpaceOnUse">
<stop offset="0.115" stop-color="white"/>
<stop offset="0.52" stop-color="#F3D434"/>
<stop offset="1" stop-color="#E84E99"/>
</linearGradient>
<linearGradient id="paint4_linear_405_3032" x1="183.198" y1="1.18656" x2="183.198" y2="42" gradientUnits="userSpaceOnUse">
<stop offset="0.115" stop-color="white"/>
<stop offset="0.52" stop-color="#F3D434"/>
<stop offset="1" stop-color="#E84E99"/>
</linearGradient>
</defs>
</svg>
